#N canvas 856 168 894 718 10;
#X floatatom 115 97 5 0 0 0 - - -;
#X floatatom 176 101 5 0 0 0 - - -;
#X obj 176 120 osc~ 302;
#X obj 115 118 osc~ 299;
#X text 53 28 write multichannel audio to a shmdata. Here the shmdata
name is "testshm". The actual shmdata socket path is /tmp/pd_testshm.
("/tmp/pd_" is used as prefix);
#X text 53 12 SHMSINK~;
#X text 219 185 number of channels;
#X text 188 174 |;
#X text 220 174 |;
#X text 120 184 shmdata name;
#X obj 441 179 dac~;
#X obj 442 148 *~ 0.05;
#X obj 116 157 shmsink~ testshm 4;
#X obj 441 112 shmsrc~ testshm 4;
#X floatatom 236 101 5 0 0 0 - - -;
#X floatatom 295 100 5 0 0 0 - - -;
#X obj 236 120 osc~ 304;
#X obj 295 119 osc~ 309;
#X obj 605 148 loadbang;
#X msg 605 170 \; pd dsp 1;
#X connect 0 0 3 0;
#X connect 1 0 2 0;
#X connect 2 0 12 1;
#X connect 3 0 12 0;
#X connect 11 0 10 0;
#X connect 11 0 10 1;
#X connect 13 0 11 0;
#X connect 13 1 11 0;
#X connect 13 2 11 0;
#X connect 13 3 11 0;
#X connect 14 0 16 0;
#X connect 15 0 17 0;
#X connect 16 0 12 2;
#X connect 17 0 12 3;
#X connect 18 0 19 0;
