#N canvas 854 173 894 718 10;
#X floatatom 45 34 5 0 0 0 - - -;
#X floatatom 106 36 5 0 0 0 - - -;
#X obj 106 55 osc~ 302;
#X obj 45 55 osc~ 299;
#X text 149 122 number of channels;
#X text 118 111 |;
#X text 150 111 |;
#X text 50 121 shmdata name;
#X obj 378 113 dac~;
#X obj 46 94 shmsink~ testshm 4;
#X obj 377 45 shmsrc~ testshm 4;
#X floatatom 166 36 5 0 0 0 - - -;
#X floatatom 225 35 5 0 0 0 - - -;
#X obj 166 55 osc~ 304;
#X obj 225 54 osc~ 309;
#X obj 572 22 loadbang;
#X msg 572 44 \; pd dsp 1;
#X obj 377 83 *~ 0.5;
#X obj 443 82 *~ 0.5;
#X text 42 10 WRITING;
#X text 383 17 READING;
#X connect 0 0 3 0;
#X connect 1 0 2 0;
#X connect 2 0 9 1;
#X connect 3 0 9 0;
#X connect 10 0 17 0;
#X connect 10 1 17 0;
#X connect 10 2 18 0;
#X connect 10 3 18 0;
#X connect 11 0 13 0;
#X connect 12 0 14 0;
#X connect 13 0 9 2;
#X connect 14 0 9 3;
#X connect 15 0 16 0;
#X connect 17 0 8 0;
#X connect 18 0 8 1;
