#N canvas 860 103 918 1020 10;
#X msg 659 272 \; pd dsp 1;
#X obj 659 247 loadbang;
#X obj 92 767 OSCtx;
#X msg 80 328 connect localhost 7770;
#X msg 26 829 /add_property_subscriber mylistener localhost 9080;
#X msg 39 863 /get_property_notification mylistener internal_logger
last-line;
#X obj 705 373 OSCrx 9080;
#X obj 705 395 print SWITCHER-MSG;
#X obj 57 240 dac~;
#X msg 20 79 set_prefix /tmp/switcher_default_;
#X obj 80 305 loadbang;
#X msg 322 129 /create videosink win;
#X msg 467 127 /remove win;
#X obj 53 132 shmsrc~ fake 2;
#X obj 205 496 symbol;
#X msg 205 448 http://ftp.akl.lt/Video/Big_Buck_Bunny/big_buck_bunny_480p_stereo.ogg
;
#X obj 68 36 loadbang;
#X msg 164 375 /create uridecodebin bbb;
#X msg 205 525 /invoke bbb to_shmdata \$1;
#X msg 199 596 /remove bbb;
#X msg 661 672 /invoke pipeline0 seek \$1;
#X obj 801 655 * 1000;
#X msg 479 610 /invoke pipeline0 play;
#X obj 478 640 hsl 400 15 0 400 0 0 empty empty empty -2 -8 0 10 -262144
-1 -1 24200 1;
#X msg 478 583 /invoke pipeline0 pause;
#X msg 332 162 /invoke win connect /tmp/switcher_default_bbb_video_0
;
#X msg 117 105 set_name bbb_audio_0;
#X floatatom 474 655 5 0 0 0 - - -;
#X connect 1 0 0 0;
#X connect 3 0 2 0;
#X connect 4 0 2 0;
#X connect 5 0 2 0;
#X connect 6 0 7 0;
#X connect 9 0 13 0;
#X connect 10 0 3 0;
#X connect 11 0 2 0;
#X connect 12 0 2 0;
#X connect 13 0 8 0;
#X connect 13 1 8 1;
#X connect 14 0 18 0;
#X connect 15 0 14 0;
#X connect 16 0 9 0;
#X connect 16 0 26 0;
#X connect 17 0 2 0;
#X connect 18 0 2 0;
#X connect 19 0 2 0;
#X connect 20 0 2 0;
#X connect 21 0 20 0;
#X connect 22 0 2 0;
#X connect 23 0 21 0;
#X connect 23 0 27 0;
#X connect 24 0 2 0;
#X connect 25 0 2 0;
#X connect 26 0 13 0;
