#N canvas 993 82 927 1118 10;
#X msg 659 272 \; pd dsp 1;
#X obj 659 247 loadbang;
#X obj 92 767 OSCtx;
#X msg 80 328 connect localhost 7770;
#X msg 26 829 /add_property_subscriber mylistener localhost 9080;
#X msg 39 863 /get_property_notification mylistener internal_logger
last-line;
#X obj 705 373 OSCrx 9080;
#X obj 705 395 print SWITCHER-MSG;
#X obj 57 240 dac~;
#X msg 20 79 set_prefix /tmp/switcher_default_;
#X obj 80 305 loadbang;
#X msg 117 105 set_name youtube_audio_0;
#X obj 53 132 shmsrc~ fake 2;
#X floatatom 431 30 5 0 0 0 - - -;
#X obj 431 44 osc~ 300;
#X floatatom 466 65 5 0 0 0 - - -;
#X floatatom 503 101 5 0 0 0 - - -;
#X floatatom 538 137 5 0 0 0 - - -;
#X obj 432 173 shmsink~ myaudio 4;
#X obj 466 79 osc~ 400;
#X obj 503 116 osc~ 500;
#X obj 538 152 osc~ 600;
#X msg 164 375 /create rtpsession sender;
#X msg 207 739 /remove sender;
#X msg 185 432 /invoke sender add_data_stream /tmp/pd_myaudio;
#X msg 210 487 /invoke sender add_destination me_1 localhost;
#X msg 204 559 /invoke sender add_udp_stream_to_dest /tmp/pd_myaudio
me_1 11090;
#X msg 217 613 /invoke sender add_destination me_2 localhost;
#X msg 214 641 /invoke sender add_udp_stream_to_dest /tmp/pd_myaudio
me_2 11090;
#X connect 1 0 0 0;
#X connect 3 0 2 0;
#X connect 4 0 2 0;
#X connect 5 0 2 0;
#X connect 6 0 7 0;
#X connect 9 0 12 0;
#X connect 10 0 3 0;
#X connect 11 0 12 0;
#X connect 12 0 8 0;
#X connect 12 1 8 1;
#X connect 13 0 14 0;
#X connect 14 0 18 0;
#X connect 15 0 19 0;
#X connect 16 0 20 0;
#X connect 17 0 21 0;
#X connect 19 0 18 1;
#X connect 20 0 18 2;
#X connect 21 0 18 3;
#X connect 22 0 2 0;
#X connect 23 0 2 0;
#X connect 24 0 2 0;
#X connect 25 0 2 0;
#X connect 26 0 2 0;
#X connect 27 0 2 0;
#X connect 28 0 2 0;
