#N canvas 794 213 918 718 10;
#X msg 659 272 \; pd dsp 1;
#X obj 659 247 loadbang;
#X obj 117 672 OSCtx;
#X msg 80 328 connect localhost 7770;
#X msg 148 475 /add_property_subscriber mylistener localhost 9080;
#X msg 213 637 /delete_property_subscriber mylistener;
#X msg 196 596 /unsubscribe_property_notification mylistener internal_logger
last-line;
#X msg 161 509 /get_property_notification mylistener internal_logger
last-line;
#X msg 110 359 /create audiotestsrc truc;
#X msg 163 427 /remove truc;
#X obj 542 523 OSCrx 9080;
#X obj 542 545 print SWITCHER-MSG;
#X msg 125 382 /set truc freq 300;
#X msg 175 552 /get_property_notification mylistener truc freq;
#X obj 57 240 dac~;
#X msg 20 79 set_prefix /tmp/switcher_default_;
#X msg 117 105 set_name truc_audio;
#X msg 329 388 /set truc freq \$1;
#X obj 333 251 vsl 15 128 200 600 0 0 empty empty empty 0 -9 0 10 -262144
-1 -1 4800 1;
#X obj 53 132 shmsrc~ fake 1;
#X obj 58 174 *~ 0.5;
#X obj 80 305 loadbang;
#X msg 150 402 /set truc volume 0.5;
#X connect 1 0 0 0;
#X connect 3 0 2 0;
#X connect 4 0 2 0;
#X connect 5 0 2 0;
#X connect 6 0 2 0;
#X connect 7 0 2 0;
#X connect 8 0 2 0;
#X connect 9 0 2 0;
#X connect 10 0 11 0;
#X connect 12 0 2 0;
#X connect 13 0 2 0;
#X connect 15 0 19 0;
#X connect 16 0 19 0;
#X connect 17 0 2 0;
#X connect 18 0 17 0;
#X connect 19 0 20 0;
#X connect 20 0 14 0;
#X connect 20 0 14 1;
#X connect 21 0 3 0;
#X connect 22 0 2 0;
