#N canvas 989 82 927 1118 10;
#X msg 325 72 \; pd dsp 1;
#X obj 325 47 loadbang;
#X obj 79 783 OSCtx;
#X msg 80 328 connect localhost 7770;
#X msg 26 829 /add_property_subscriber mylistener localhost 9080;
#X msg 26 857 /get_property_notification mylistener internal_logger
last-line;
#X obj 31 906 OSCrx 9080;
#X obj 31 928 print SWITCHER-MSG;
#X obj 579 574 dac~;
#X msg 549 420 set_prefix /tmp/switcher_default_;
#X obj 80 305 loadbang;
#X floatatom 159 29 5 0 0 0 - - -;
#X obj 159 43 osc~ 300;
#X floatatom 194 64 5 0 0 0 - - -;
#X floatatom 231 100 5 0 0 0 - - -;
#X floatatom 266 136 5 0 0 0 - - -;
#X obj 160 172 shmsink~ myaudio 4;
#X obj 194 78 osc~ 400;
#X obj 231 115 osc~ 500;
#X obj 266 151 osc~ 600;
#X msg 108 357 /create rtpsession sender;
#X msg 287 355 /remove sender;
#X msg 129 414 /invoke sender add_data_stream /tmp/pd_myaudio;
#X msg 154 469 /invoke sender add_destination me_1 localhost;
#X msg 148 541 /invoke sender add_udp_stream_to_dest /tmp/pd_myaudio
me_1 11090;
#X msg 161 595 /invoke sender add_destination me_2 localhost;
#X msg 547 305 /create uridecodebin receiver;
#X msg 538 348 /invoke receiver to_shmdata http://localhost:8080/sdp?rtpsession=sender&destination=me_1
;
#X msg 581 442 set_name receiver_custom_0;
#X obj 575 466 shmsrc~ fake 4;
#X obj 566 522 *~ 0.2;
#X obj 627 520 *~ 0.2;
#X obj 542 1020 dac~;
#X msg 505 859 set_prefix /tmp/switcher_default_;
#X obj 538 912 shmsrc~ fake 4;
#X obj 529 968 *~ 0.2;
#X obj 590 966 *~ 0.2;
#X msg 470 754 /create uridecodebin receiver2;
#X obj 653 920 tgl 15 0 empty empty empty 17 7 0 10 -262144 -1 -1 1
1;
#X obj 657 946 * 0.2;
#X obj 688 474 tgl 15 0 empty empty empty 17 7 0 10 -262144 -1 -1 0
1;
#X obj 692 500 * 0.2;
#X msg 469 784 /invoke receiver2 to_shmdata http://localhost:8080/sdp?rtpsession=sender&destination=me_2
;
#X msg 602 885 set_name receiver2_custom_0;
#X msg 751 305 /remove receiver;
#X obj 507 833 loadbang;
#X obj 557 397 loadbang;
#X msg 158 623 /invoke sender add_udp_stream_to_dest /tmp/pd_myaudio
me_2 11080;
#X connect 1 0 0 0;
#X connect 3 0 2 0;
#X connect 4 0 2 0;
#X connect 5 0 2 0;
#X connect 6 0 7 0;
#X connect 9 0 29 0;
#X connect 10 0 3 0;
#X connect 11 0 12 0;
#X connect 12 0 16 0;
#X connect 13 0 17 0;
#X connect 14 0 18 0;
#X connect 15 0 19 0;
#X connect 17 0 16 1;
#X connect 18 0 16 2;
#X connect 19 0 16 3;
#X connect 20 0 2 0;
#X connect 21 0 2 0;
#X connect 22 0 2 0;
#X connect 23 0 2 0;
#X connect 24 0 2 0;
#X connect 25 0 2 0;
#X connect 26 0 2 0;
#X connect 27 0 2 0;
#X connect 28 0 29 0;
#X connect 29 0 30 0;
#X connect 29 1 30 0;
#X connect 29 2 31 0;
#X connect 29 3 31 0;
#X connect 30 0 8 0;
#X connect 31 0 8 1;
#X connect 33 0 34 0;
#X connect 34 0 35 0;
#X connect 34 1 35 0;
#X connect 34 2 36 0;
#X connect 34 3 36 0;
#X connect 35 0 32 0;
#X connect 36 0 32 1;
#X connect 37 0 2 0;
#X connect 38 0 39 0;
#X connect 39 0 36 1;
#X connect 39 0 35 1;
#X connect 40 0 41 0;
#X connect 41 0 31 1;
#X connect 41 0 30 1;
#X connect 42 0 2 0;
#X connect 43 0 34 0;
#X connect 44 0 2 0;
#X connect 45 0 33 0;
#X connect 45 0 43 0;
#X connect 46 0 9 0;
#X connect 46 0 28 0;
#X connect 47 0 2 0;
