#N canvas 848 188 894 718 10;
#X floatatom 59 82 5 0 0 0 - - -;
#X floatatom 166 87 5 0 0 0 - - -;
#X obj 166 106 osc~ 302;
#X obj 59 103 osc~ 299;
#X text 163 172 number of channels;
#X text 132 161 |;
#X text 164 161 |;
#X text 64 171 shmdata name;
#X msg 369 60 \; pd dsp 1;
#X obj 60 144 shmsink~ testshm 2;
#X obj 369 35 loadbang;
#X obj 71 392 OSCtx;
#X msg 70 301 connect localhost 7770;
#X msg 243 300 /create pulsesink audio_out;
#X msg 243 325 /invoke audio_out connect /tmp/pd_testshm;
#X msg 244 351 /remove audio_out;
#X text 70 45 1 - WRITING;
#X text 76 252 2 - PLAY with switcher;
#X text 240 281 switcher commands:;
#X text 68 282 OSC parameters;
#X connect 0 0 3 0;
#X connect 1 0 2 0;
#X connect 2 0 9 1;
#X connect 3 0 9 0;
#X connect 10 0 8 0;
#X connect 12 0 11 0;
#X connect 13 0 11 0;
#X connect 14 0 11 0;
#X connect 15 0 11 0;
