#N canvas 992 118 918 1020 10;
#X msg 607 37 \; pd dsp 1;
#X obj 607 12 loadbang;
#X obj 28 671 OSCtx;
#X msg 28 62 connect localhost 7770;
#X msg 40 743 /add_property_subscriber mylistener localhost 9080;
#X msg 28 765 /get_property_notification mylistener internal_logger
last-line;
#X obj 184 41 OSCrx 9080;
#X obj 184 63 print SWITCHER-MSG;
#X obj 456 236 dac~;
#X msg 457 165 set_prefix /tmp/switcher_default_;
#X obj 28 39 loadbang;
#X msg 81 148 /create videosink win;
#X msg 104 207 /remove win;
#X obj 457 211 shmsrc~ fake 2;
#X obj 191 455 symbol;
#X msg 191 417 http://ftp.akl.lt/Video/Big_Buck_Bunny/big_buck_bunny_480p_stereo.ogg
;
#X obj 456 138 loadbang;
#X msg 155 363 /create uridecodebin bbb;
#X msg 191 479 /invoke bbb to_shmdata \$1;
#X msg 91 181 /invoke win connect /tmp/switcher_default_bbb_video_0
;
#X msg 485 185 set_name bbb_audio_0;
#X text 33 12 1 - OSC;
#X text 64 121 2 - prepare video window and audio playout;
#X text 144 326 3 - play the video;
#X text 53 721 (optionnal) get logs:;
#X text 187 397 give the uri \, works also (better) with file://;
#X msg 206 578 /invoke bbb pause;
#X msg 206 605 /invoke bbb play;
#X msg 344 578 /invoke bbb seek 200000;
#X text 202 553 4 - play/pause/seek/speed;
#X msg 346 620 /invoke bbb speed 4;
#X msg 345 599 /invoke bbb speed 0.5;
#X text 493 577 ms;
#X connect 1 0 0 0;
#X connect 3 0 2 0;
#X connect 4 0 2 0;
#X connect 5 0 2 0;
#X connect 6 0 7 0;
#X connect 9 0 13 0;
#X connect 10 0 3 0;
#X connect 11 0 2 0;
#X connect 12 0 2 0;
#X connect 13 0 8 0;
#X connect 13 1 8 1;
#X connect 14 0 18 0;
#X connect 15 0 14 0;
#X connect 16 0 9 0;
#X connect 16 0 20 0;
#X connect 17 0 2 0;
#X connect 18 0 2 0;
#X connect 19 0 2 0;
#X connect 20 0 13 0;
#X connect 26 0 2 0;
#X connect 27 0 2 0;
#X connect 28 0 2 0;
#X connect 30 0 2 0;
