#N canvas 521 260 783 799 10;
#X msg 577 48 \; pd dsp 1;
#X obj 577 23 loadbang;
#X obj 42 734 OSCtx;
#X msg 41 60 connect localhost 7770;
#X msg 210 360 /add_property_subscriber mylistener localhost 9080;
#X msg 254 700 /delete_property_subscriber mylistener;
#X msg 254 659 /unsubscribe_property_notification mylistener internal_logger
last-line;
#X msg 222 433 /get_property_notification mylistener internal_logger
last-line;
#X msg 111 174 /create audiotestsrc truc;
#X msg 164 242 /remove truc;
#X obj 202 52 OSCrx 9080;
#X obj 202 74 print SWITCHER-MSG;
#X msg 221 492 /get_property_notification mylistener truc freq;
#X obj 327 258 dac~;
#X msg 327 191 set_prefix /tmp/switcher_default_;
#X msg 543 191 set_name truc_audio;
#X obj 327 214 shmsrc~ fake 1;
#X obj 328 235 *~ 0.5;
#X msg 151 217 /set truc volume 0.5;
#X text 44 26 1 - connect and receive OSC;
#X text 90 142 2 - create de shmdata audio sin from switcher;
#X text 341 375 <subscriber_name> <host> <port>;
#X text 295 464 <subscriber_name> <quiddity_name> <property name>;
#X text 199 314 3 - create a subscriber;
#X text 225 408 4 - subscribe to some properties;
#X obj 327 170 loadbang;
#X msg 126 197 /set truc freq 300;
#X text 225 540 5 - change property for being notifies;
#X msg 230 587 /set truc freq \$1;
#X obj 233 563 hsl 128 15 0 1400 0 0 empty empty empty -2 -8 0 10 -262144
-1 -1 5400 1;
#X text 255 638 6 - unsubscribe/delete;
#X connect 1 0 0 0;
#X connect 3 0 2 0;
#X connect 4 0 2 0;
#X connect 5 0 2 0;
#X connect 6 0 2 0;
#X connect 7 0 2 0;
#X connect 8 0 2 0;
#X connect 9 0 2 0;
#X connect 10 0 11 0;
#X connect 12 0 2 0;
#X connect 14 0 16 0;
#X connect 15 0 16 0;
#X connect 16 0 17 0;
#X connect 17 0 13 0;
#X connect 17 0 13 1;
#X connect 18 0 2 0;
#X connect 25 0 14 0;
#X connect 25 0 15 0;
#X connect 28 0 2 0;
#X connect 29 0 28 0;
