#N canvas 987 82 927 1118 10;
#X msg 354 66 \; pd dsp 1;
#X obj 354 41 loadbang;
#X obj 42 889 OSCtx;
#X msg 42 269 connect localhost 7770;
#X msg 11 930 /add_property_subscriber mylistener localhost 9080;
#X msg 11 958 /get_property_notification mylistener internal_logger
last-line;
#X obj 204 249 OSCrx 9080;
#X obj 204 271 print SWITCHER-MSG;
#X obj 609 759 dac~;
#X msg 609 662 set_prefix /tmp/switcher_default_;
#X obj 42 246 loadbang;
#X floatatom 80 37 5 0 0 0 - - -;
#X obj 80 51 osc~ 300;
#X floatatom 115 72 5 0 0 0 - - -;
#X floatatom 152 108 5 0 0 0 - - -;
#X floatatom 187 144 5 0 0 0 - - -;
#X obj 81 180 shmsink~ myaudio 4;
#X obj 115 86 osc~ 400;
#X obj 152 123 osc~ 500;
#X obj 187 159 osc~ 600;
#X msg 96 347 /create rtpsession sender;
#X msg 116 409 /invoke sender add_data_stream /tmp/pd_myaudio;
#X msg 138 469 /invoke sender add_destination me_1 localhost;
#X msg 148 565 /invoke sender add_udp_stream_to_dest /tmp/pd_myaudio
me_1 11090;
#X msg 143 506 /invoke sender add_destination me_2 localhost;
#X msg 195 684 /create uridecodebin receiver;
#X msg 196 713 /invoke receiver to_shmdata http://localhost:8080/sdp?rtpsession=sender&destination=me_1
;
#X msg 636 684 set_name receiver_custom_0;
#X obj 609 707 shmsrc~ fake 4;
#X obj 609 734 *~ 0.2;
#X obj 663 734 *~ 0.2;
#X obj 607 914 dac~;
#X msg 607 823 set_prefix /tmp/switcher_default_;
#X obj 607 864 shmsrc~ fake 4;
#X obj 606 891 *~ 0.2;
#X obj 661 892 *~ 0.2;
#X msg 205 809 /create uridecodebin receiver2;
#X obj 752 893 tgl 15 0 empty empty empty 17 7 0 10 -262144 -1 -1 0
1;
#X obj 709 893 * 0.2;
#X obj 754 736 tgl 15 0 empty empty empty 17 7 0 10 -262144 -1 -1 0
1;
#X obj 713 735 * 0.2;
#X msg 205 830 /invoke receiver2 to_shmdata http://localhost:8080/sdp?rtpsession=sender&destination=me_2
;
#X msg 680 844 set_name receiver2_custom_0;
#X obj 607 801 loadbang;
#X obj 609 639 loadbang;
#X msg 153 618 /invoke sender add_udp_stream_to_dest /tmp/pd_myaudio
me_2 11080;
#X text 48 11 1 - make a 4 channels audio shmdata;
#X text 40 225 2 - OSC;
#X text 40 911 (optionnal) get logs:;
#X text 135 380 4 - add at least one shmdata (all type shmdata can
be added into a session);
#X text 313 484 <name> <hostname>;
#X text 82 313 3 - make a rtp session manager (supports multiple shmdata
inputs and multiple destinations);
#X text 145 448 5 - add some destinations;
#X text 157 539 6 - send the shmdata content to destination;
#X text 272 595 <shmdata_path> <destination_name> <port>;
#X text 194 664 7 - receive as "me_1";
#X text 769 735 mute;
#X text 194 785 8 - receive the same \, but as "me_2";
#X connect 1 0 0 0;
#X connect 3 0 2 0;
#X connect 4 0 2 0;
#X connect 5 0 2 0;
#X connect 6 0 7 0;
#X connect 9 0 28 0;
#X connect 10 0 3 0;
#X connect 11 0 12 0;
#X connect 12 0 16 0;
#X connect 13 0 17 0;
#X connect 14 0 18 0;
#X connect 15 0 19 0;
#X connect 17 0 16 1;
#X connect 18 0 16 2;
#X connect 19 0 16 3;
#X connect 20 0 2 0;
#X connect 21 0 2 0;
#X connect 22 0 2 0;
#X connect 23 0 2 0;
#X connect 24 0 2 0;
#X connect 25 0 2 0;
#X connect 26 0 2 0;
#X connect 27 0 28 0;
#X connect 28 0 29 0;
#X connect 28 1 29 0;
#X connect 28 2 30 0;
#X connect 28 3 30 0;
#X connect 29 0 8 0;
#X connect 30 0 8 1;
#X connect 32 0 33 0;
#X connect 33 0 34 0;
#X connect 33 1 34 0;
#X connect 33 2 35 0;
#X connect 33 3 35 0;
#X connect 34 0 31 0;
#X connect 35 0 31 1;
#X connect 36 0 2 0;
#X connect 37 0 38 0;
#X connect 38 0 35 1;
#X connect 38 0 34 1;
#X connect 39 0 40 0;
#X connect 40 0 30 1;
#X connect 40 0 29 1;
#X connect 41 0 2 0;
#X connect 42 0 33 0;
#X connect 43 0 32 0;
#X connect 43 0 42 0;
#X connect 44 0 9 0;
#X connect 44 0 27 0;
#X connect 45 0 2 0;
