#N canvas 747 207 894 718 10;
#X floatatom 115 97 5 0 0 0 - - -;
#X floatatom 136 141 5 0 0 0 - - -;
#X floatatom 157 189 5 0 0 0 - - -;
#X obj 157 208 osc~ 300;
#X floatatom 178 228 5 0 0 0 - - -;
#X floatatom 200 269 5 0 0 0 - - -;
#X floatatom 221 316 5 0 0 0 - - -;
#X obj 136 160 osc~ 302;
#X obj 178 246 osc~ 295;
#X obj 200 288 osc~ 301;
#X obj 221 337 osc~ 299;
#X obj 115 118 osc~ 299;
#X text 53 28 write multichannel audio to a shmdata. Here the shmdata
name is "testshm". The actual shmdata socket path is /tmp/pd_testshm.
("/tmp/pd_" is used as prefix);
#X text 53 12 SHMSINK~;
#X text 398 208 gst-launch -v shmsrc is-live=true socket-path=/tmp/pd_testshm
! gdpdepay ! audiorate ! pulsesink sync=false;
#X text 217 412 number of channels;
#X text 186 401 |;
#X text 218 401 |;
#X text 118 411 shmdata name;
#X text 397 113 This makes your audio available for shmdata enabled
softwares \, like switcher. (http://code.sat.qc.ca/redmine/projects/libshmdata)
(http://code.sat.qc.ca/redmine/projects/switcher) In order to hear
your multichannel audio in pulse (linux) \, type the following in a
terminal:;
#X msg 58 521 set_prefix /tmp/;
#X msg 164 551 set_name switcher_default_youtube_audio_0;
#X obj 682 543 dac~;
#X msg 173 521 set_name switcher_default_mysrc_gstsrc;
#X obj 681 503 *~ 0.1;
#X obj 115 384 shmsink~ testshm 6;
#X obj 682 424 shmsrc~ testshm 6;
#X connect 0 0 11 0;
#X connect 1 0 7 0;
#X connect 2 0 3 0;
#X connect 3 0 25 2;
#X connect 4 0 8 0;
#X connect 5 0 9 0;
#X connect 6 0 10 0;
#X connect 7 0 25 1;
#X connect 8 0 25 3;
#X connect 9 0 25 4;
#X connect 10 0 25 5;
#X connect 11 0 25 0;
#X connect 24 0 22 0;
#X connect 24 0 22 1;
#X connect 26 0 24 0;
#X connect 26 1 24 0;
#X connect 26 2 24 0;
#X connect 26 3 24 0;
#X connect 26 4 24 0;
#X connect 26 5 24 0;
